<?xml version="1.0" encoding="UTF-8" standalone="no"?>
<!DOCTYPE svg PUBLIC "-//W3C//DTD SVG 1.1//EN" "http://www.w3.org/Graphics/SVG/1.1/DTD/svg11.dtd">
<svg version="1.1" xmlns="http://www.w3.org/2000/svg" xmlns:xlink="http://www.w3.org/1999/xlink" preserveAspectRatio="xMidYMid meet" viewBox="0 0 640 640" width="512" height="512"><defs><path d="M640 320C640 496.61 496.61 640 320 640C143.39 640 0 496.61 0 320C0 143.39 143.39 0 320 0C496.61 0 640 143.39 640 320Z" id="c3qSOaI8I"></path><path d="M116.52 14.95L117.78 15.2L119 15.53L120.18 15.96L121.32 16.47L122.41 17.05L123.46 17.72L124.45 18.45L125.38 19.26L126.25 20.13L127.05 21.06L127.79 22.05L128.45 23.09L129.04 24.19L129.55 25.33L129.97 26.51L130.31 27.73L130.55 28.98L130.7 30.27L130.75 31.59L130.7 32.9L130.55 34.19L130.31 35.44L129.97 36.66L129.55 37.85L129.04 38.99L128.45 40.08L127.79 41.12L127.05 42.11L126.41 42.86L126.46 42.91L126.41 42.97L123.36 47.28L120.46 51.72L117.74 56.27L115.2 60.93L112.83 65.7L110.64 70.57L108.64 75.54L106.83 80.6L105.22 85.75L103.81 90.98L102.6 96.3L101.6 101.69L100.82 107.15L100.26 112.67L99.91 118.26L99.8 123.91L99.91 129.56L100.26 135.15L100.82 140.68L101.6 146.14L102.6 151.53L103.81 156.84L105.22 162.07L106.83 167.22L108.64 172.29L110.64 177.25L112.83 182.12L115.2 186.89L117.74 191.55L120.46 196.1L123.36 200.54L126.41 204.86L129.63 209.05L133 213.11L136.52 217.04L140.19 220.83L144.01 224.48L147.96 227.99L152.05 231.34L156.26 234.54L160.6 237.58L165.06 240.45L169.64 243.16L174.32 245.69L179.12 248.05L184.02 250.23L189.01 252.21L194.1 254.01L199.28 255.62L204.54 257.02L209.89 258.22L215.31 259.21L220.8 259.99L226.36 260.55L231.98 260.89L237.66 261.01L243.33 260.89L248.95 260.55L254.51 259.99L260 259.21L265.42 258.22L270.77 257.02L276.03 255.62L281.21 254.01L286.3 252.21L291.29 250.23L296.19 248.05L300.99 245.69L305.67 243.16L310.25 240.45L314.71 237.58L319.05 234.54L323.26 231.34L324.73 230.14L325.43 229.53L326.42 228.8L327.46 228.13L328.56 227.55L329.69 227.04L330.88 226.62L332.1 226.28L333.35 226.04L334.64 225.89L335.95 225.83L337.27 225.89L338.56 226.04L339.81 226.28L341.03 226.62L342.21 227.04L343.35 227.55L344.45 228.13L345.49 228.8L346.48 229.53L347.41 230.34L348.28 231.21L349.09 232.14L349.82 233.13L350.49 234.17L351.07 235.27L351.58 236.41L352.01 237.59L352.34 238.81L352.59 240.07L352.74 241.35L352.79 242.67L352.74 243.98L352.59 245.27L352.34 246.52L352.01 247.75L351.58 248.93L351.07 250.07L350.49 251.16L349.82 252.2L349.44 252.72L349.86 253.12L349.03 253.86L343.95 258.04L338.72 262.04L333.33 265.83L327.79 269.42L322.11 272.8L316.29 275.96L310.34 278.91L304.26 281.62L298.05 284.1L291.73 286.35L285.3 288.35L278.77 290.1L272.13 291.6L265.4 292.84L258.59 293.81L251.69 294.51L244.71 294.94L237.66 295.08L230.6 294.94L223.63 294.51L218.99 294.04L218.99 567.71L219.11 567.73L223.62 568.56L228.06 569.56L232.44 570.73L236.75 572.08L240.98 573.58L245.13 575.24L249.21 577.06L253.19 579.03L257.09 581.15L260.9 583.41L264.61 585.82L268.22 588.36L271.72 591.03L275.12 593.84L278.41 596.77L281.58 599.82L284.63 602.99L287.56 606.28L290.36 609.68L293.04 613.18L295.58 616.79L297.98 620.5L300.25 624.3L302.37 628.2L304.34 632.19L306.16 636.26L307.82 640.42L309.32 644.65L310.66 648.96L311.84 653.33L312.84 657.78L313.67 662.28L314.32 666.85L314.79 671.47L315.07 676.15L315.17 680.87L315.07 685.59L314.79 690.27L314.32 694.89L313.67 699.45L312.84 703.96L311.84 708.4L310.66 712.78L309.32 717.09L307.82 721.32L306.16 725.47L304.34 729.55L302.37 733.53L300.25 737.43L297.98 741.24L295.58 744.95L293.04 748.56L290.36 752.06L287.56 755.46L284.63 758.75L281.58 761.92L278.41 764.97L275.12 767.9L271.72 770.7L268.22 773.38L264.61 775.92L260.9 778.32L257.09 780.59L253.19 782.71L249.21 784.68L245.13 786.5L240.98 788.16L236.75 789.66L232.44 791L228.06 792.18L223.62 793.18L219.11 794.01L214.55 794.66L209.93 795.13L205.25 795.42L200.53 795.51L195.81 795.42L191.13 795.13L186.51 794.66L181.94 794.01L177.44 793.18L172.99 792.18L168.62 791L164.31 789.66L160.08 788.16L155.92 786.5L151.85 784.68L147.86 782.71L143.96 780.59L140.16 778.32L136.45 775.92L132.84 773.38L129.34 770.7L125.94 767.9L122.65 764.97L119.48 761.92L116.43 758.75L113.5 755.46L110.69 752.06L108.02 748.56L105.48 744.95L103.07 741.24L100.81 737.43L98.69 733.53L96.72 729.55L94.9 725.47L93.24 721.32L91.73 717.09L90.39 712.78L89.22 708.4L88.22 703.96L87.39 699.45L86.74 694.89L86.27 690.27L85.98 685.59L85.89 680.87L85.98 676.15L86.27 671.47L86.74 666.85L87.39 662.28L88.22 657.78L89.22 653.33L90.39 648.96L91.73 644.65L93.24 640.42L94.9 636.26L96.72 632.19L98.69 628.2L100.81 624.3L103.07 620.5L105.48 616.79L108.02 613.18L110.69 609.68L113.5 606.28L116.43 602.99L119.48 599.82L122.65 596.77L125.94 593.84L129.34 591.03L132.84 588.36L136.45 585.82L140.16 583.41L143.96 581.15L147.86 579.03L151.85 577.06L155.92 575.24L160.08 573.58L164.31 572.08L168.62 570.73L172.99 569.56L177.44 568.56L181.94 567.73L186.51 567.08L190.91 566.63L190.91 288.59L190.01 288.35L183.58 286.35L177.26 284.1L171.05 281.62L164.97 278.91L159.02 275.96L153.2 272.8L147.52 269.42L141.98 265.83L136.59 262.04L131.36 258.04L126.28 253.86L121.38 249.48L116.64 244.92L112.08 240.19L107.71 235.28L103.52 230.21L99.53 224.97L95.73 219.59L92.14 214.05L88.77 208.37L85.6 202.55L82.66 196.59L79.94 190.51L77.46 184.31L75.22 177.99L73.22 171.56L71.46 165.02L69.96 158.39L68.73 151.66L67.75 144.84L67.05 137.94L66.63 130.96L66.48 123.91L66.63 116.86L67.05 109.88L67.75 102.98L68.73 96.16L69.96 89.43L71.46 82.8L73.22 76.26L75.22 69.83L77.46 63.51L79.94 57.31L82.66 51.23L85.6 45.28L88.77 39.46L92.14 33.77L95.73 28.24L99.53 22.85L99.63 22.72L100.05 22.05L100.79 21.06L101.59 20.13L101.63 20.09L101.87 19.78L101.91 19.81L102.46 19.26L103.4 18.45L104.39 17.72L105.43 17.05L106.52 16.47L107.66 15.96L108.84 15.53L110.06 15.2L111.32 14.95L112.61 14.8L113.92 14.75L115.24 14.8L116.52 14.95ZM193.96 589.93L190.28 590.3L186.65 590.82L183.06 591.48L179.52 592.28L176.04 593.21L172.61 594.28L169.24 595.47L165.94 596.8L162.7 598.25L159.52 599.81L156.42 601.5L153.39 603.3L150.44 605.22L147.57 607.24L144.78 609.37L142.07 611.6L139.46 613.93L136.93 616.36L134.5 618.89L132.17 621.5L129.94 624.2L127.81 626.99L125.79 629.87L123.87 632.82L122.07 635.85L120.39 638.95L118.82 642.12L117.37 645.37L116.05 648.67L114.85 652.04L113.78 655.47L112.85 658.95L112.05 662.49L111.39 666.08L110.87 669.71L110.5 673.39L110.27 677.11L110.19 680.87L110.27 684.63L110.5 688.35L110.87 692.03L111.39 695.66L112.05 699.25L112.85 702.79L113.78 706.27L114.85 709.7L116.05 713.06L117.37 716.37L118.82 719.61L120.39 722.79L122.07 725.89L123.87 728.92L125.79 731.87L127.81 734.74L129.94 737.53L132.17 740.24L134.5 742.85L136.93 745.38L139.46 747.81L142.07 750.14L144.78 752.37L147.57 754.5L150.44 756.52L153.39 758.44L156.42 760.24L159.52 761.92L162.7 763.49L165.94 764.94L169.24 766.26L172.61 767.46L176.04 768.53L179.52 769.46L183.06 770.26L186.65 770.92L190.28 771.44L193.96 771.81L197.68 772.04L201.44 772.11L205.2 772.04L208.92 771.81L212.6 771.44L216.23 770.92L219.82 770.26L223.36 769.46L226.84 768.53L230.27 767.46L233.64 766.26L236.94 764.94L240.19 763.49L243.36 761.92L246.46 760.24L249.49 758.44L252.44 756.52L255.31 754.5L258.1 752.37L260.81 750.14L263.42 747.81L265.95 745.38L268.38 742.85L270.71 740.24L272.94 737.53L275.07 734.74L277.09 731.87L279.01 728.92L280.81 725.89L282.5 722.79L284.06 719.61L285.51 716.37L286.83 713.06L288.03 709.7L289.1 706.27L290.03 702.79L290.83 699.25L291.49 695.66L292.01 692.03L292.38 688.35L292.61 684.63L292.69 680.87L292.61 677.11L292.38 673.39L292.01 669.71L291.49 666.08L290.83 662.49L290.03 658.95L289.1 655.47L288.03 652.04L286.83 648.67L285.51 645.37L284.06 642.12L282.5 638.95L280.81 635.85L279.01 632.82L277.09 629.87L275.07 626.99L272.94 624.2L270.71 621.5L268.38 618.89L265.95 616.36L263.42 613.93L260.81 611.6L258.1 609.37L255.31 607.24L252.44 605.22L249.49 603.3L246.46 601.5L243.36 599.81L240.19 598.25L236.94 596.8L233.64 595.47L230.27 594.28L226.84 593.21L223.36 592.28L219.82 591.48L216.23 590.82L212.6 590.3L208.92 589.93L205.2 589.7L201.44 589.62L197.68 589.7L193.96 589.93Z" id="a8nXxsO61"></path><path d="M477.48 354.64L484.61 355.37L491.67 356.37L498.63 357.66L505.49 359.2L512.25 361.02L518.9 363.09L525.43 365.41L531.85 367.98L538.14 370.79L544.29 373.83L550.31 377.1L556.19 380.6L561.92 384.31L567.49 388.23L572.9 392.36L578.15 396.69L583.23 401.22L588.12 405.93L592.84 410.83L597.36 415.9L601.69 421.15L605.82 426.56L609.75 432.14L613.46 437.87L616.96 443.74L620.23 449.76L623.27 455.92L626.08 462.21L628.65 468.62L630.97 475.16L633.04 481.81L634.85 488.57L636.4 495.43L637.68 502.39L638.69 509.44L639.41 516.58L639.85 523.8L640 531.09L639.85 538.38L639.41 545.6L638.69 552.74L637.68 559.79L636.4 566.75L634.85 573.61L633.04 580.37L630.97 587.02L628.65 593.56L626.08 599.97L623.27 606.26L620.23 612.42L616.96 618.44L613.46 624.32L609.75 630.04L605.82 635.62L601.69 641.03L597.36 646.28L592.84 651.35L588.12 656.25L583.23 660.96L578.15 665.49L572.9 669.82L567.49 673.95L561.92 677.87L556.19 681.58L550.31 685.08L544.29 688.35L538.14 691.39L531.85 694.2L525.43 696.77L518.9 699.09L512.25 701.16L505.49 702.98L498.63 704.52L491.67 705.81L484.61 706.81L477.48 707.54L470.26 707.98L462.97 708.12L455.67 707.98L448.46 707.54L441.32 706.81L434.27 705.81L427.31 704.52L420.44 702.98L413.68 701.16L407.03 699.09L400.5 696.77L394.08 694.2L387.79 691.39L381.64 688.35L375.62 685.08L369.74 681.58L364.01 677.87L358.44 673.95L353.03 669.82L347.78 665.49L342.71 660.96L337.81 656.25L333.09 651.35L328.57 646.28L324.24 641.03L320.11 635.62L316.18 630.04L312.47 624.32L308.98 618.44L305.7 612.42L302.66 606.26L299.85 599.97L297.29 593.56L294.96 587.02L292.89 580.37L291.08 573.61L289.53 566.75L288.25 559.79L287.24 552.74L286.52 545.6L286.08 538.38L285.93 531.09L286.08 523.8L286.52 516.58L287.24 509.44L288.25 502.39L289.53 495.43L291.08 488.57L292.89 481.81L294.96 475.16L297.29 468.62L299.85 462.21L302.66 455.92L305.7 449.76L308.98 443.74L312.47 437.87L316.18 432.14L320.11 426.56L324.24 421.15L328.57 415.9L333.09 410.83L337.81 405.93L342.71 401.22L347.78 396.69L353.03 392.36L358.44 388.23L364.01 384.31L369.74 380.6L375.62 377.1L381.64 373.83L387.79 370.79L394.08 367.98L400.5 365.41L407.03 363.09L413.68 361.02L420.44 359.2L427.31 357.66L434.27 356.37L441.32 355.37L448.46 354.64L455.67 354.2L462.97 354.06L470.26 354.2L477.48 354.64ZM450.76 382.62L444.75 383.23L438.82 384.07L432.96 385.15L427.19 386.45L421.5 387.98L415.9 389.72L410.4 391.68L405 393.84L399.71 396.2L394.53 398.76L389.47 401.51L384.52 404.45L379.7 407.58L375.01 410.88L370.46 414.36L366.04 418L361.77 421.81L357.65 425.77L353.68 429.9L349.88 434.17L346.23 438.58L342.76 443.14L339.45 447.83L336.33 452.64L333.39 457.59L330.64 462.66L328.08 467.84L325.71 473.13L323.55 478.53L321.6 484.03L319.86 489.62L318.33 495.31L317.03 501.08L315.95 506.94L315.1 512.87L314.49 518.88L314.12 524.95L314 531.09L314.12 537.23L314.49 543.3L315.1 549.31L315.95 555.24L317.03 561.1L318.33 566.87L319.86 572.56L321.6 578.15L323.55 583.65L325.71 589.05L328.08 594.34L330.64 599.53L333.39 604.59L336.33 609.54L339.45 614.36L342.76 619.04L346.23 623.6L349.88 628.01L353.68 632.28L357.65 636.41L361.77 640.37L366.04 644.18L370.46 647.82L375.01 651.3L379.7 654.6L384.52 657.73L389.47 660.67L394.53 663.42L399.71 665.98L405 668.34L410.4 670.5L415.9 672.46L421.5 674.2L427.19 675.73L432.96 677.03L438.82 678.11L444.75 678.95L450.76 679.56L456.83 679.93L462.97 680.06L469.1 679.93L475.18 679.56L481.18 678.95L487.12 678.11L492.97 677.03L498.75 675.73L504.43 674.2L510.03 672.46L515.53 670.5L520.93 668.34L526.22 665.98L531.4 663.42L536.47 660.67L541.41 657.73L546.23 654.6L550.92 651.3L555.48 647.82L559.89 644.18L564.16 640.37L568.28 636.41L572.25 632.28L576.06 628.01L579.7 623.6L583.18 619.04L586.48 614.36L589.6 609.54L592.54 604.59L595.3 599.53L597.86 594.34L600.22 589.05L602.38 583.65L604.33 578.15L606.08 572.56L607.6 566.87L608.9 561.1L609.98 555.24L610.83 549.31L611.44 543.3L611.81 537.23L611.93 531.09L611.81 524.95L611.44 518.88L610.83 512.87L609.98 506.94L608.9 501.08L607.6 495.31L606.08 489.62L604.33 484.03L602.38 478.53L600.22 473.13L597.86 467.84L595.3 462.66L592.54 457.59L589.6 452.64L586.48 447.83L583.18 443.14L579.7 438.58L576.06 434.17L572.25 429.9L568.28 425.77L564.16 421.81L559.89 418L555.48 414.36L550.92 410.88L546.23 407.58L541.41 404.45L536.47 401.51L531.4 398.76L526.22 396.2L520.93 393.84L515.53 391.68L510.03 389.72L504.43 387.98L498.75 386.45L492.97 385.15L487.12 384.07L481.18 383.23L475.18 382.62L469.1 382.25L462.97 382.12L456.83 382.25L450.76 382.62ZM464.03 388.33L465.24 388.69L466.4 389.18L467.48 389.79L468.49 390.51L469.41 391.33L470.23 392.25L470.95 393.26L471.56 394.34L472.05 395.5L472.41 396.72L472.63 397.98L472.71 399.3L472.7 399.39L472.94 399.39L472.94 531.09L556.52 531.09L556.52 531.14L557.01 531.17L558.32 531.42L559.56 531.82L560.74 532.36L561.83 533.03L562.83 533.82L563.74 534.72L564.53 535.73L565.2 536.82L565.74 538L566.14 539.24L566.38 540.55L566.47 541.9L566.38 543.26L566.14 544.56L565.74 545.81L565.2 546.98L564.53 548.08L563.74 549.08L562.83 549.98L561.83 550.77L560.74 551.44L559.56 551.98L558.32 552.38L557.01 552.63L556.52 552.66L556.52 552.68L556.17 552.68L555.66 552.71L555.14 552.68L449.91 552.68L449.91 399.39L450.19 399.39L450.18 399.3L450.26 397.98L450.48 396.72L450.84 395.5L451.33 394.34L451.94 393.26L452.66 392.25L453.48 391.33L454.4 390.51L455.41 389.79L456.49 389.18L457.65 388.69L458.86 388.33L460.13 388.11L461.45 388.03L462.76 388.11L464.03 388.33Z" id="a7pRnc3w0D"></path></defs><g><g><g><use xlink:href="#c3qSOaI8I" opacity="1" fill="#ff8e00" fill-opacity="1"></use></g><g><use xlink:href="#a8nXxsO61" opacity="1" fill="#000000" fill-opacity="1"></use></g><g><use xlink:href="#a7pRnc3w0D" opacity="1" fill="#000000" fill-opacity="1"></use></g></g></g></svg>